<svg width="823" height="1453" viewBox="0 0 823 1453" fill="none" xmlns="http://www.w3.org/2000/svg">
<g style="mix-blend-mode:multiply" opacity="0.21">
<path d="M688.385 892.167L688.385 526.801L191.32 526.801L191.32 892.167L688.385 892.167Z" fill="#C6CBB1"/>
</g>
<g style="mix-blend-mode:multiply" opacity="0.21">
<path d="M521 1452.57L521 1300.57L27 1300.57L27 1452.57L521 1452.57Z" fill="#C6CBB1"/>
</g>
<path d="M448.944 86.0708C441.424 91.2675 433.687 96.6138 433.687 107.371C433.687 118.127 441.459 123.474 448.944 128.67C455.889 133.482 462.473 138.016 462.473 147.168C462.473 156.321 455.889 160.876 448.944 165.667C441.424 170.863 433.687 176.21 433.687 186.966C433.687 197.723 441.459 203.069 448.944 208.266C455.889 213.078 462.473 217.611 462.473 226.764C462.473 235.917 455.889 240.472 448.944 245.263C441.424 250.459 433.687 255.805 433.687 266.562C433.687 277.319 441.459 282.665 448.944 287.862C455.889 292.674 462.473 297.207 462.473 306.36C462.473 315.513 455.889 320.068 448.944 324.88C441.424 330.076 433.687 335.423 433.687 346.179C433.687 356.936 441.459 362.283 448.944 367.479C455.889 372.291 462.473 376.824 462.473 385.999C462.473 395.173 455.889 399.707 448.944 404.518C441.424 409.715 433.687 415.083 433.687 425.818C433.687 436.553 441.459 441.921 448.944 447.118C455.889 451.929 462.473 456.463 462.473 465.637C462.473 466.814 464.093 467.776 466.072 467.776C468.051 467.776 469.67 466.814 469.67 465.637C469.67 454.881 461.898 449.534 454.413 444.338C447.469 439.526 440.884 434.992 440.884 425.818C440.884 416.644 447.469 412.11 454.413 407.298C461.934 402.102 469.67 396.734 469.67 385.999C469.67 375.263 461.898 369.896 454.413 364.699C447.469 359.887 440.884 355.354 440.884 346.179C440.884 337.005 447.469 332.472 454.413 327.66C461.934 322.463 469.67 317.117 469.67 306.36C469.67 295.603 461.898 290.257 454.413 285.06C447.469 280.249 440.884 275.715 440.884 266.562C440.884 257.409 447.469 252.854 454.413 248.064C461.934 242.867 469.67 237.521 469.67 226.764C469.67 216.008 461.898 210.661 454.413 205.465C447.469 200.653 440.884 196.119 440.884 186.966C440.884 177.814 447.469 173.258 454.413 168.468C461.934 163.272 469.67 157.925 469.67 147.168C469.67 136.412 461.898 131.065 454.413 125.869C447.469 121.057 440.884 116.523 440.884 107.371C440.884 98.2177 447.469 93.6626 454.413 88.8723C461.934 83.6757 469.67 78.3294 469.67 67.5726C469.67 64.0654 468.842 61.1357 467.439 58.5908L459.739 58.5908C461.394 61.0715 462.473 63.9585 462.473 67.5726C462.473 76.7255 455.889 81.2806 448.944 86.0708Z" fill="#9CA9B9"/>
<path d="M514.182 465.616C514.182 454.86 506.409 449.513 498.925 444.317C491.98 439.505 485.395 434.971 485.395 425.797C485.395 416.623 491.98 412.089 498.925 407.277C506.445 402.081 514.182 396.713 514.182 385.978C514.182 375.242 506.409 369.875 498.925 364.678C491.98 359.866 485.395 355.333 485.395 346.158C485.395 336.984 491.98 332.451 498.925 327.639C506.445 322.442 514.182 317.096 514.182 306.339C514.182 295.582 506.409 290.236 498.925 285.039C491.98 280.228 485.395 275.694 485.395 266.541C485.395 257.388 491.98 252.833 498.925 248.043C506.445 242.846 514.182 237.5 514.182 226.743C514.182 215.987 506.409 210.64 498.925 205.444C491.98 200.632 485.395 196.098 485.395 186.945C485.395 177.792 491.98 173.237 498.925 168.447C506.445 163.251 514.182 157.904 514.182 147.147C514.182 136.391 506.409 131.044 498.925 125.848C491.98 121.036 485.396 116.502 485.396 107.35C485.396 98.1967 491.98 93.6416 498.925 88.8513C506.445 83.6547 514.182 78.3084 514.182 67.5516C514.182 64.0444 513.354 61.1147 511.951 58.5698L504.25 58.5698C505.906 61.0505 506.985 63.9375 506.985 67.5516C506.985 76.7045 500.4 81.2596 493.456 86.0498C485.935 91.2465 478.199 96.5928 478.199 107.35C478.199 118.106 485.971 123.453 493.456 128.649C500.4 133.461 506.985 137.995 506.985 147.147C506.985 156.3 500.4 160.855 493.456 165.646C485.935 170.842 478.199 176.189 478.199 186.945C478.199 197.702 485.971 203.048 493.456 208.245C500.4 213.057 506.985 217.59 506.985 226.743C506.985 235.896 500.4 240.451 493.456 245.242C485.935 250.438 478.199 255.784 478.199 266.541C478.199 277.298 485.971 282.644 493.456 287.841C500.4 292.653 506.985 297.186 506.985 306.339C506.985 315.492 500.4 320.047 493.456 324.859C485.935 330.055 478.199 335.402 478.199 346.158C478.199 356.915 485.971 362.262 493.456 367.458C500.4 372.27 506.985 376.803 506.985 385.978C506.985 395.152 500.4 399.686 493.456 404.497C485.935 409.694 478.199 415.062 478.199 425.797C478.199 436.532 485.971 441.9 493.456 447.097C500.4 451.908 506.985 456.442 506.985 465.616C506.985 466.793 508.604 467.755 510.583 467.755C512.562 467.755 514.182 466.793 514.182 465.616Z" fill="#9CA9B9"/>
<path d="M417.964 67.5736C417.964 76.7265 411.379 81.2815 404.434 86.0718C396.914 91.2684 389.177 96.6147 389.177 107.372C389.177 118.128 396.95 123.475 404.434 128.671C411.379 133.483 417.964 138.017 417.964 147.169C417.964 156.322 411.379 160.877 404.434 165.668C396.914 170.864 389.177 176.211 389.177 186.967C389.177 197.724 396.95 203.07 404.434 208.267C411.379 213.079 417.964 217.612 417.964 226.765C417.964 235.918 411.379 240.473 404.434 245.264C396.914 250.46 389.177 255.806 389.177 266.563C389.177 277.32 396.95 282.666 404.434 287.863C411.379 292.675 417.964 297.208 417.964 306.361C417.964 315.514 411.379 320.069 404.434 324.881C396.914 330.077 389.177 335.424 389.177 346.18C389.177 356.937 396.95 362.284 404.434 367.48C411.379 372.292 417.964 376.825 417.964 386C417.964 395.174 411.379 399.708 404.434 404.519C396.914 409.716 389.177 415.084 389.177 425.819C389.177 436.554 396.95 441.922 404.434 447.119C411.379 451.93 417.964 456.464 417.964 465.638C417.964 466.815 419.583 467.777 421.562 467.777C423.541 467.777 425.16 466.815 425.16 465.638C425.16 454.882 417.388 449.535 409.903 444.339C402.959 439.527 396.374 434.993 396.374 425.819C396.374 416.645 402.959 412.111 409.903 407.299C417.424 402.103 425.16 396.735 425.16 386C425.16 375.264 417.388 369.897 409.903 364.7C402.959 359.888 396.374 355.355 396.374 346.18C396.374 337.006 402.959 332.472 409.903 327.661C417.424 322.464 425.16 317.118 425.16 306.361C425.16 295.604 417.388 290.258 409.903 285.061C402.959 280.25 396.374 275.716 396.374 266.563C396.374 257.41 402.959 252.855 409.903 248.065C417.424 242.868 425.16 237.522 425.16 226.765C425.16 216.008 417.388 210.662 409.903 205.466C402.959 200.654 396.374 196.12 396.374 186.967C396.374 177.814 402.959 173.259 409.903 168.469C417.424 163.273 425.16 157.926 425.16 147.169C425.16 136.413 417.388 131.066 409.903 125.87C402.959 121.058 396.374 116.524 396.374 107.372C396.374 98.2186 402.959 93.6636 409.903 88.8733C417.424 83.6767 425.16 78.3304 425.16 67.5736C425.16 64.0664 424.333 61.1366 422.929 58.5918L415.229 58.5918C416.884 61.0725 417.964 63.9595 417.964 67.5736Z" fill="#9CA9B9"/>
<path d="M716.007 1432.39C719.39 1423.13 721.728 1411.89 721.728 1396.33C721.728 1368.13 713.956 1354.03 706.472 1340.38C699.527 1327.75 692.942 1315.84 692.942 1291.8C692.942 1267.75 699.527 1255.79 706.472 1243.21C713.992 1229.56 721.729 1215.51 721.729 1187.26C721.729 1159 713.956 1144.96 706.472 1131.31C699.527 1118.67 692.942 1106.76 692.942 1082.72C692.942 1058.68 699.527 1046.77 706.472 1034.13C713.992 1020.54 721.729 1006.44 721.729 978.187C721.729 975.098 720.109 972.57 718.13 972.57C716.151 972.57 714.532 975.098 714.532 978.187C714.532 1002.23 707.947 1014.14 701.002 1026.78C693.482 1040.37 685.746 1054.47 685.746 1082.67C685.746 1110.87 693.518 1124.96 701.002 1138.61C707.947 1151.25 714.532 1163.16 714.532 1187.2C714.532 1211.24 707.947 1223.21 701.002 1235.79C693.482 1249.44 685.746 1263.48 685.746 1291.74C685.746 1319.99 693.518 1334.04 701.002 1347.69C707.947 1360.33 714.532 1372.23 714.532 1396.28C714.532 1412.51 711.509 1423.18 707.407 1432.34L715.971 1432.34L716.007 1432.39Z" fill="#E1E3D9"/>
<path d="M795.452 1340.44C788.508 1327.8 781.923 1315.89 781.923 1291.85C781.923 1267.81 788.508 1255.84 795.452 1243.26C802.973 1229.61 810.709 1215.57 810.709 1187.31C810.709 1159.06 802.937 1145.02 795.452 1131.37C788.508 1118.73 781.923 1106.82 781.923 1082.78C781.923 1058.74 788.508 1046.83 795.452 1034.19C802.973 1020.59 810.709 1006.5 810.709 978.241C810.709 975.151 809.09 972.624 807.111 972.624C805.132 972.624 803.512 975.151 803.512 978.241C803.512 1002.28 796.928 1014.19 789.983 1026.83C782.463 1040.42 774.726 1054.52 774.726 1082.72C774.726 1110.92 782.499 1125.02 789.983 1138.67C796.928 1151.31 803.512 1163.22 803.512 1187.26C803.512 1211.3 796.928 1223.26 789.983 1235.85C782.463 1249.5 774.726 1263.54 774.726 1291.79C774.726 1320.05 782.498 1334.09 789.983 1347.74C796.928 1360.38 803.512 1372.29 803.512 1396.33C803.512 1412.56 800.49 1423.24 796.388 1432.39L804.952 1432.39C808.334 1423.12 810.673 1411.89 810.673 1396.33C810.673 1368.13 802.901 1354.03 795.416 1340.38L795.452 1340.44Z" fill="#E1E3D9"/>
<path d="M750.98 1340.44C744.035 1327.8 737.45 1315.89 737.45 1291.85C737.45 1267.81 744.035 1255.84 750.98 1243.26C758.5 1229.61 766.236 1215.57 766.236 1187.31C766.236 1159.06 758.464 1145.01 750.98 1131.36C744.035 1118.73 737.45 1106.82 737.45 1082.78C737.45 1058.73 744.035 1046.83 750.98 1034.19C758.5 1020.59 766.236 1006.49 766.236 978.24C766.236 975.15 764.617 972.623 762.638 972.623C760.659 972.623 759.04 975.15 759.04 978.24C759.04 1002.28 752.455 1014.19 745.51 1026.83C737.99 1040.42 730.254 1054.52 730.254 1082.72C730.254 1110.92 738.026 1125.02 745.51 1138.67C752.455 1151.31 759.04 1163.21 759.04 1187.26C759.04 1211.3 752.455 1223.26 745.51 1235.84C737.99 1249.49 730.254 1263.54 730.254 1291.79C730.254 1320.05 738.026 1334.09 745.51 1347.74C752.455 1360.38 759.04 1372.29 759.04 1396.33C759.04 1412.56 756.017 1423.23 751.915 1432.39L760.479 1432.39C763.861 1423.12 766.2 1411.89 766.2 1396.33C766.2 1368.13 758.428 1354.03 750.944 1340.38L750.98 1340.44Z" fill="#E1E3D9"/>
<path d="M362.51 30.2616C371.778 33.644 383.013 35.9829 398.572 35.9829C426.771 35.9829 440.87 28.2106 454.52 20.7262C467.158 13.7816 479.067 7.19672 503.108 7.19672C527.15 7.19672 539.114 13.7816 551.697 20.7263C565.347 28.2466 579.39 35.9829 607.644 35.9829C635.899 35.9829 649.942 28.2107 663.592 20.7263C676.231 13.7816 688.139 7.19674 712.18 7.19674C736.222 7.19674 748.131 13.7816 760.769 20.7263C774.363 28.2467 788.462 35.9829 816.717 35.9829C819.806 35.9829 822.334 34.3637 822.334 32.3846C822.334 30.4056 819.806 28.7864 816.717 28.7864C792.675 28.7864 780.767 22.2015 768.128 15.2568C754.534 7.73645 740.435 0.000198834 712.237 0.000196369C684.038 0.000193903 669.939 7.77242 656.29 15.2568C643.651 22.2015 631.742 28.7864 607.701 28.7864C583.659 28.7863 571.694 22.2015 559.112 15.2568C545.462 7.73643 531.419 0.000180561 503.165 0.000178091C474.91 0.000175621 460.867 7.7724 447.217 15.2568C434.579 22.2015 422.67 28.7863 398.628 28.7863C382.395 28.7863 371.722 25.7637 362.566 21.6617L362.566 30.2256L362.51 30.2616Z" fill="#E1E3D9"/>
<path d="M454.463 109.707C467.102 102.762 479.01 96.1772 503.052 96.1772C527.093 96.1772 539.058 102.762 551.641 109.707C565.29 117.227 579.333 124.963 607.588 124.963C635.842 124.963 649.885 117.191 663.535 109.707C676.174 102.762 688.082 96.1772 712.124 96.1772C736.165 96.1772 748.074 102.762 760.713 109.707C774.306 117.227 788.406 124.963 816.66 124.963C819.75 124.963 822.277 123.344 822.277 121.365C822.277 119.386 819.75 117.767 816.66 117.767C792.619 117.767 780.71 111.182 768.071 104.237C754.478 96.7169 740.378 88.9807 712.18 88.9807C683.982 88.9807 669.883 96.7529 656.233 104.237C643.594 111.182 631.686 117.767 607.644 117.767C583.602 117.767 571.638 111.182 559.055 104.237C545.405 96.7169 531.363 88.9806 503.108 88.9806C474.853 88.9806 460.81 96.7529 447.161 104.237C434.522 111.182 422.614 117.767 398.572 117.767C382.338 117.767 371.665 114.744 362.509 110.642L362.509 119.206C371.778 122.588 383.012 124.927 398.572 124.927C426.77 124.927 440.869 117.155 454.519 109.671L454.463 109.707Z" fill="#E1E3D9"/>
<path d="M454.465 65.235C467.103 58.2904 479.012 51.7055 503.054 51.7055C527.095 51.7055 539.06 58.2904 551.643 65.235C565.292 72.7554 579.335 80.4917 607.59 80.4917C635.844 80.4917 649.887 72.7195 663.537 65.2351C676.176 58.2904 688.084 51.7055 712.126 51.7055C736.167 51.7055 748.076 58.2904 760.715 65.2351C774.308 72.7554 788.408 80.4917 816.662 80.4917C819.752 80.4917 822.279 78.8725 822.279 76.8934C822.279 74.9144 819.752 73.2952 816.662 73.2952C792.62 73.2952 780.712 66.7104 768.073 59.7657C754.48 52.2453 740.38 44.509 712.182 44.509C683.984 44.509 669.885 52.2813 656.235 59.7657C643.596 66.7104 631.688 73.2951 607.646 73.2951C583.604 73.2951 571.64 66.7104 559.057 59.7657C545.407 52.2453 531.364 44.509 503.11 44.509C474.855 44.509 460.812 52.2813 447.162 59.7657C434.524 66.7104 422.616 73.2951 398.574 73.2951C382.34 73.2951 371.667 70.2726 362.511 66.1706L362.511 74.7344C371.78 78.1168 383.014 80.4558 398.574 80.4558C426.772 80.4558 440.871 72.6834 454.521 65.199L454.465 65.235Z" fill="#E1E3D9"/>
<path d="M86.1343 312.065H44.6055V280.142C44.6055 279.567 44.1369 279.099 43.5672 279.099C42.9974 279.099 42.5288 279.567 42.5288 280.142V312.065H1V280.142C1 256.67 20.095 237.57 43.5672 237.57C67.0393 237.57 86.1343 256.665 86.1343 280.142V312.065Z" stroke="#C6CBB1" stroke-width="2" stroke-miterlimit="10"/>
<path d="M21.7617 312.065V280.142C21.7617 268.097 31.5222 258.336 43.5671 258.336C55.612 258.336 65.3726 268.097 65.3726 280.142V312.065" stroke="#C6CBB1" stroke-width="2" stroke-miterlimit="10"/>
<path d="M86.1343 386.554H44.6055V354.632C44.6055 354.056 44.1369 353.588 43.5672 353.588C42.9974 353.588 42.5288 354.056 42.5288 354.632V386.554H1V354.632C1 331.159 20.095 312.059 43.5672 312.059C67.0393 312.059 86.1343 331.154 86.1343 354.632V386.554Z" stroke="#C6CBB1" stroke-width="2" stroke-miterlimit="10"/>
<path d="M21.7617 386.554V354.631C21.7617 342.586 31.5222 332.826 43.5671 332.826C55.612 332.826 65.3726 342.586 65.3726 354.631V386.554" stroke="#C6CBB1" stroke-width="2" stroke-miterlimit="10"/>
</svg>
