<svg width="60" height="61" viewBox="0 0 60 61" fill="none" xmlns="http://www.w3.org/2000/svg">
<rect y="0.5" width="60" height="60" rx="30" fill="#DDEDFF"/>
<path d="M40.9998 32.3332H31.8332V41.4998C31.8332 42.5082 31.0082 43.3332 29.9998 43.3332C28.9915 43.3332 28.1665 42.5082 28.1665 41.4998V32.3332H18.9998C17.9915 32.3332 17.1665 31.5082 17.1665 30.4998C17.1665 29.4915 17.9915 28.6665 18.9998 28.6665H28.1665V19.4998C28.1665 18.4915 28.9915 17.6665 29.9998 17.6665C31.0082 17.6665 31.8332 18.4915 31.8332 19.4998V28.6665H40.9998C42.0082 28.6665 42.8332 29.4915 42.8332 30.4998C42.8332 31.5082 42.0082 32.3332 40.9998 32.3332Z" fill="#0077FF"/>
</svg>
