<svg width="165" height="165" viewBox="0 0 165 165" fill="none" xmlns="http://www.w3.org/2000/svg">
<mask id="mask0_430_3561" style="mask-type:luminance" maskUnits="userSpaceOnUse" x="0" y="0" width="165" height="165">
<path d="M82.1082 164.216C127.455 164.216 164.216 127.455 164.216 82.1082C164.216 36.7611 127.455 0 82.1082 0C36.7611 0 0 36.7611 0 82.1082C0 127.455 36.7611 164.216 82.1082 164.216Z" fill="white"/>
</mask>
<g mask="url(#mask0_430_3561)">
<path d="M125.438 -68.2732L-76.1836 62.0615L-75.573 63.006L126.048 -67.3287L125.438 -68.2732Z" fill="#404040"/>
<path d="M132.241 -61.4949L-69.3799 68.8398L-68.7693 69.7844L132.852 -60.5504L132.241 -61.4949Z" fill="#404040"/>
<path d="M139.002 -54.6824L-62.6191 75.6523L-62.0086 76.5969L139.613 -53.7379L139.002 -54.6824Z" fill="#404040"/>
<path d="M145.799 -47.8963L-55.8223 82.4385L-55.2117 83.383L146.409 -46.9518L145.799 -47.8963Z" fill="#404040"/>
<path d="M152.611 -41.1355L-49.0098 89.1992L-48.3992 90.1437L153.222 -40.191L152.611 -41.1355Z" fill="#404040"/>
<path d="M159.362 -34.3123L-42.2588 96.0225L-41.6482 96.967L159.973 -33.3678L159.362 -34.3123Z" fill="#404040"/>
<path d="M166.219 -27.619L-35.3789 102.751L-34.7682 103.695L166.83 -26.6746L166.219 -27.619Z" fill="#404040"/>
<path d="M172.956 -20.743L-28.665 109.592L-28.0545 110.536L173.567 -19.7984L172.956 -20.743Z" fill="#404040"/>
<path d="M179.763 -13.9754L-21.8584 116.359L-21.2478 117.304L180.373 -13.0309L179.763 -13.9754Z" fill="#404040"/>
<path d="M186.527 -7.15604L-15.0938 123.179L-14.4832 124.123L187.138 -6.21153L186.527 -7.15604Z" fill="#404040"/>
<path d="M193.319 -0.376748L-8.30176 129.958L-7.69124 130.902L193.93 0.567696L193.319 -0.376748Z" fill="#404040"/>
<path d="M200.136 6.39083L-1.48535 136.726L-0.874782 137.67L200.746 7.33535L200.136 6.39083Z" fill="#404040"/>
<path d="M206.884 13.215L5.2627 143.55L5.87326 144.494L207.494 14.1596L206.884 13.215Z" fill="#404040"/>
<path d="M213.692 19.9885L12.0713 150.323L12.6819 151.268L214.303 20.933L213.692 19.9885Z" fill="#404040"/>
<path d="M220.492 26.7619L18.8711 157.097L19.4817 158.041L221.103 27.7065L220.492 26.7619Z" fill="#404040"/>
<path d="M227.257 33.5805L25.6357 163.915L26.2463 164.86L227.867 34.525L227.257 33.5805Z" fill="#404040"/>
<path d="M234.053 40.3664L32.4316 170.701L33.0422 171.646L234.663 41.3109L234.053 40.3664Z" fill="#404040"/>
<path d="M240.866 47.1272L39.2451 177.462L39.8557 178.406L241.477 48.0717L240.866 47.1272Z" fill="#404040"/>
<path d="M247.617 53.9572L45.9961 184.292L46.6067 185.237L248.228 54.9018L247.617 53.9572Z" fill="#404040"/>
<path d="M254.445 60.7033L52.8242 191.038L53.4348 191.983L255.056 61.6479L254.445 60.7033Z" fill="#404040"/>
<path d="M261.233 67.4963L59.6123 197.831L60.2229 198.776L261.844 68.4408L261.233 67.4963Z" fill="#404040"/>
<path d="M267.987 74.3166L66.3662 204.651L66.9768 205.596L268.598 75.2611L267.987 74.3166Z" fill="#404040"/>
<path d="M274.776 81.1174L73.1553 211.452L73.7658 212.397L275.387 82.0618L274.776 81.1174Z" fill="#404040"/>
</g>
</svg>
